<?xml version="1.0" encoding="iso-8859-1"?>
<!-- Generator: Adobe Illustrator 19.0.0, SVG Export Plug-In . SVG Version: 6.00 Build 0)  -->
<svg version="1.1" id="Capa_1" xmlns="http://www.w3.org/2000/svg" xmlns:xlink="http://www.w3.org/1999/xlink" x="0px" y="0px"
	 viewBox="0 0 512 512" style="enable-background:new 0 0 512 512;" xml:space="preserve">
<g>
	<g>
		<path d="M448,138.667h-42.667V96c0-35.285-28.715-64-64-64H64C28.715,32,0,60.715,0,96v213.333c0,35.285,28.715,64,64,64h42.667
			V416c0,35.285,28.715,64,64,64H448c35.285,0,64-28.715,64-64V202.667C512,167.381,483.285,138.667,448,138.667z M42.667,96
			c0-11.776,9.579-21.333,21.333-21.333h277.333c11.755,0,21.333,9.557,21.333,21.333v138.112l-83.435-60.843
			c-5.717-4.16-13.099-5.269-19.691-2.88L42.667,247.168V96z M64,330.667c-11.755,0-21.333-9.557-21.333-21.333v-16.939
			l220.523-78.059l99.477,72.576v22.421c0,11.776-9.579,21.333-21.333,21.333H64z M469.333,416c0,11.776-9.557,21.333-21.333,21.333
			H170.667c-11.755,0-21.333-9.557-21.333-21.333v-42.667h192c35.285,0,64-28.715,64-64v-128H448
			c11.776,0,21.333,9.557,21.333,21.333V416z"/>
	</g>
</g>
<g>
	<g>
		<circle cx="117.333" cy="148.053" r="32"/>
	</g>
</g>
<g>
</g>
<g>
</g>
<g>
</g>
<g>
</g>
<g>
</g>
<g>
</g>
<g>
</g>
<g>
</g>
<g>
</g>
<g>
</g>
<g>
</g>
<g>
</g>
<g>
</g>
<g>
</g>
<g>
</g>
</svg>
