<?xml version="1.0" encoding="iso-8859-1"?>
<!-- Generator: Adobe Illustrator 19.0.0, SVG Export Plug-In . SVG Version: 6.00 Build 0)  -->
<svg version="1.1" id="Capa_1" xmlns="http://www.w3.org/2000/svg" xmlns:xlink="http://www.w3.org/1999/xlink" x="0px" y="0px"
	 viewBox="0 0 511.992 511.992" style="enable-background:new 0 0 511.992 511.992;" xml:space="preserve">
<g>
	<g>
		<path d="M505.273,410.958l-78.892-79.776c-7.248-7.315-18.585-8.707-27.314-3.271l-65.08,40.197
			C260.841,314.63,196.336,250.721,142.15,177.995l40.263-65.191c5.37-8.685,4.088-19.911-3.116-27.159l-78.45-79.113
			C92.252-2.13,78.285-2.174,69.623,6.378L33.89,41.648C0.3,75.37-9.136,127.213,10.421,170.681l3.293,7.204
			C79.015,323.16,195.341,438.316,341.258,502.202c15.071,6.563,30.872,9.79,46.517,9.79c29.877,0,59.136-11.69,81.389-33.855
			l36.021-36.021C513.78,433.52,513.825,419.62,505.273,410.958z M437.916,446.868c-20.905,20.839-51.865,26.673-78.958,14.85
			c-135.839-59.489-244.144-166.711-304.981-302.02l-3.271-7.226c-12.066-26.805-6.232-58.826,14.386-79.51l19.889-19.646
			l50.65,51.092l-39.026,63.202c-4.773,7.734-4.331,17.612,1.127,24.883l7.889,10.497
			c57.323,77.256,125.829,145.165,203.174,201.472l10.386,7.956c7.293,5.613,17.259,6.099,25.06,1.282l63.069-38.938l51.07,51.644
			L437.916,446.868z"/>
	</g>
</g>
<g>
</g>
<g>
</g>
<g>
</g>
<g>
</g>
<g>
</g>
<g>
</g>
<g>
</g>
<g>
</g>
<g>
</g>
<g>
</g>
<g>
</g>
<g>
</g>
<g>
</g>
<g>
</g>
<g>
</g>
</svg>
