<?xml version="1.0" encoding="iso-8859-1"?>
<!-- Generator: Adobe Illustrator 19.0.0, SVG Export Plug-In . SVG Version: 6.00 Build 0)  -->
<svg version="1.1" id="Capa_1" xmlns="http://www.w3.org/2000/svg" xmlns:xlink="http://www.w3.org/1999/xlink" x="0px" y="0px"
	 viewBox="0 0 512 512" style="enable-background:new 0 0 512 512;" xml:space="preserve">
<g>
	<g>
		<path d="M368.64,0H20.48C9.175,0,0,9.175,0,20.48v348.16c0,11.305,9.175,20.48,20.48,20.48h348.16
			c11.305,0,20.48-9.175,20.48-20.48V20.48C389.12,9.175,379.945,0,368.64,0z M348.16,348.16H40.96V40.96h307.2V348.16z"/>
	</g>
</g>
<g>
	<g>
		<path d="M471.04,419.84v51.2h-51.2V512h71.68c11.305,0,20.48-9.175,20.48-20.48v-71.68H471.04z"/>
	</g>
</g>
<g>
	<g>
		<rect x="262.349" y="471.04" width="110.182" height="40.96"/>
	</g>
</g>
<g>
	<g>
		<path d="M163.84,471.04v-51.2h-40.96v71.68c0,11.305,9.175,20.48,20.48,20.48h71.68v-40.96H163.84z"/>
	</g>
</g>
<g>
	<g>
		<path d="M491.52,122.88h-71.68v40.96h51.2v51.2H512v-71.68C512,132.055,502.825,122.88,491.52,122.88z"/>
	</g>
</g>
<g>
	<g>
		<rect x="471.04" y="262.349" width="40.96" height="110.182"/>
	</g>
</g>
<g>
</g>
<g>
</g>
<g>
</g>
<g>
</g>
<g>
</g>
<g>
</g>
<g>
</g>
<g>
</g>
<g>
</g>
<g>
</g>
<g>
</g>
<g>
</g>
<g>
</g>
<g>
</g>
<g>
</g>
</svg>
