<?xml version="1.0" encoding="iso-8859-1"?>
<!-- Generator: Adobe Illustrator 19.0.0, SVG Export Plug-In . SVG Version: 6.00 Build 0)  -->
<svg version="1.1" id="Capa_1" xmlns="http://www.w3.org/2000/svg" xmlns:xlink="http://www.w3.org/1999/xlink" x="0px" y="0px"
	 viewBox="0 0 511.99 511.99" style="enable-background:new 0 0 511.99 511.99;" xml:space="preserve">
<g>
	<g>
		<path d="M437.333,74.726l-0.079-0.079C337.324-25.046,174.832-24.869,75.099,75.1c-48.3,48.419-74.874,112.753-74.775,181.166
			c0.079,68.412,26.79,132.688,75.228,180.989c48.694,48.557,113.857,74.736,180.752,74.736c24.465,0,49.167-3.506,73.357-10.657
			c29.252-9.416,45.444-40.854,36.048-70.146c-2.561-7.919-6.894-15.286-12.883-21.57l-54.367-54.939
			c-14.793-15.897-13.927-40.874,1.97-55.687c15.069-14.025,38.707-14.006,53.225-0.473l55.411,55.392
			c22.417,21.077,57.775,19.954,78.793-2.462c5.752-6.126,10.125-13.592,12.646-21.708
			C528.024,239.444,503.795,141.72,437.333,74.726z M462.822,318.139c-0.749,2.324-2.009,4.511-3.684,6.303
			c-6.166,6.56-16.507,6.914-22.673,1.162l-55.451-55.431c-30.139-28.07-77.336-28.05-107.435,0
			c-31.793,29.607-33.546,79.562-3.526,111.769l54.466,55.077c1.655,1.734,2.935,3.9,3.684,6.205
			c2.738,8.589-2.009,17.807-10.164,20.447c-76.213,22.555-158.414,1.812-214.673-54.308C62.394,368.488,39.8,314.1,39.721,256.227
			c-0.079-57.893,22.397-112.32,63.271-153.312c42.253-42.352,97.842-63.547,153.411-63.547c55.372,0,110.764,21.038,152.978,63.114
			C465.6,159.193,486.066,241.847,462.822,318.139z"/>
	</g>
</g>
<g>
	<g>
		<circle cx="161.733" cy="163.231" r="32.108"/>
	</g>
</g>
<g>
	<g>
		<circle cx="126.276" cy="268.42" r="32.108"/>
	</g>
</g>
<g>
	<g>
		<circle cx="170.597" cy="364.351" r="32.108"/>
	</g>
</g>
<g>
	<g>
		<circle cx="268.104" cy="126.592" r="32.108"/>
	</g>
</g>
<g>
	<g>
		<circle cx="364.035" cy="170.913" r="32.108"/>
	</g>
</g>
<g>
</g>
<g>
</g>
<g>
</g>
<g>
</g>
<g>
</g>
<g>
</g>
<g>
</g>
<g>
</g>
<g>
</g>
<g>
</g>
<g>
</g>
<g>
</g>
<g>
</g>
<g>
</g>
<g>
</g>
</svg>
