<?xml version="1.0" encoding="iso-8859-1"?>
<!-- Generator: Adobe Illustrator 19.0.0, SVG Export Plug-In . SVG Version: 6.00 Build 0)  -->
<svg version="1.1" id="Capa_1" xmlns="http://www.w3.org/2000/svg" xmlns:xlink="http://www.w3.org/1999/xlink" x="0px" y="0px"
	 viewBox="0 0 511.995 511.995" style="enable-background:new 0 0 511.995 511.995;" xml:space="preserve">
<g>
	<g>
		<path d="M507.394,242.678l-53.911-68.582l-10.261-86.502c-1.183-9.853-8.949-17.64-18.824-18.823l-86.524-10.262L269.292,4.598
			c-7.809-6.131-18.781-6.131-26.59,0L174.12,58.509L87.618,68.77c-9.853,1.183-17.64,8.971-18.824,18.824l-10.283,86.502
			L4.601,242.7c-6.131,7.809-6.131,18.802,0,26.59l53.911,68.604l10.283,86.502c1.183,9.853,8.949,17.64,18.824,18.824
			l86.502,10.261l68.582,53.911c3.894,3.076,8.584,4.604,13.295,4.604c4.711,0,9.401-1.527,13.295-4.625l68.582-53.911
			l86.524-10.262c9.874-1.162,17.64-8.949,18.824-18.823l10.261-86.502l53.911-68.604
			C513.525,261.48,513.525,250.487,507.394,242.678z M415.944,316.058c-2.431,3.119-4.001,6.82-4.453,10.756l-8.971,75.66
			l-75.703,8.971c-3.937,0.473-7.637,2.001-10.756,4.453l-60.042,47.199l-60.063-47.199c-3.119-2.452-6.819-3.98-10.756-4.453
			l-75.681-8.971l-9.014-75.66c-0.452-3.937-2.022-7.637-4.453-10.756l-47.199-60.063l47.22-60.063
			c2.431-3.119,4.001-6.841,4.453-10.756l8.992-75.681l75.66-8.971c3.937-0.473,7.637-2.001,10.756-4.453l60.063-47.199
			l60.042,47.199c3.119,2.452,6.819,3.98,10.756,4.453l75.703,8.971l8.992,75.681c0.452,3.937,2.022,7.637,4.453,10.756
			l47.199,60.063L415.944,316.058z"/>
	</g>
</g>
<g>
	<g>
		<path d="M379.135,212.862c-2.538-7.788-9.25-13.488-17.361-14.672l-58.988-8.691L276.37,136.32
			c-3.636-7.314-11.1-11.94-19.275-11.94h-0.022c-8.196,0.022-15.661,4.668-19.275,12.004l-26.224,53.136l-58.751,8.67
			c-8.089,1.205-14.801,6.884-17.318,14.65s-0.409,16.307,5.443,22.029l42.444,41.347l-10.111,58.751
			c-1.398,8.067,1.915,16.242,8.562,21.061c3.743,2.711,8.175,4.087,12.628,4.087c3.442,0,6.906-0.818,10.132-2.452l52.555-27.816
			l52.749,27.816c7.228,3.829,16.005,3.205,22.696-1.613c6.604-4.819,9.917-12.994,8.541-21.061l-10.132-58.729l42.617-41.347
			C379.523,229.211,381.631,220.649,379.135,212.862z M292.848,253.241c-5.098,4.948-7.443,12.09-6.217,19.103l4.625,26.848
			l-24.137-12.735c-3.162-1.656-6.604-2.495-10.046-2.495c-3.464,0-6.906,0.839-10.111,2.539l-23.901,12.649l4.604-26.783
			c1.205-6.97-1.119-14.112-6.174-19.06l-19.426-18.931l26.934-3.98c6.97-1.033,13.015-5.443,16.134-11.767l11.983-24.266
			l12.09,24.309c3.141,6.303,9.164,10.67,16.134,11.703l26.977,3.98L292.848,253.241z"/>
	</g>
</g>
<g>
</g>
<g>
</g>
<g>
</g>
<g>
</g>
<g>
</g>
<g>
</g>
<g>
</g>
<g>
</g>
<g>
</g>
<g>
</g>
<g>
</g>
<g>
</g>
<g>
</g>
<g>
</g>
<g>
</g>
</svg>
