<?xml version="1.0" encoding="iso-8859-1"?>
<!-- Generator: Adobe Illustrator 19.0.0, SVG Export Plug-In . SVG Version: 6.00 Build 0)  -->
<svg version="1.1" id="Capa_1" xmlns="http://www.w3.org/2000/svg" xmlns:xlink="http://www.w3.org/1999/xlink" x="0px" y="0px"
	 viewBox="0 0 512 512" style="enable-background:new 0 0 512 512;" xml:space="preserve">
<g>
	<g>
		<path d="M256,0C114.853,0,0,114.833,0,256s114.853,256,256,256c141.167,0,256-114.833,256-256S397.147,0,256,0z M256,472.341
			c-119.295,0-216.341-97.046-216.341-216.341S136.705,39.659,256,39.659S472.341,136.705,472.341,256S375.295,472.341,256,472.341z
			"/>
	</g>
</g>
<g>
	<g>
		<path d="M355.148,234.386H156.852c-10.946,0-19.83,8.884-19.83,19.83s8.884,19.83,19.83,19.83h198.296
			c10.946,0,19.83-8.884,19.83-19.83S366.094,234.386,355.148,234.386z"/>
	</g>
</g>
<g>
</g>
<g>
</g>
<g>
</g>
<g>
</g>
<g>
</g>
<g>
</g>
<g>
</g>
<g>
</g>
<g>
</g>
<g>
</g>
<g>
</g>
<g>
</g>
<g>
</g>
<g>
</g>
<g>
</g>
</svg>
