<?xml version="1.0" encoding="iso-8859-1"?>
<!-- Generator: Adobe Illustrator 19.0.0, SVG Export Plug-In . SVG Version: 6.00 Build 0)  -->
<svg version="1.1" id="Capa_1" xmlns="http://www.w3.org/2000/svg" xmlns:xlink="http://www.w3.org/1999/xlink" x="0px" y="0px"
	 viewBox="0 0 512.008 512.008" style="enable-background:new 0 0 512.008 512.008;" xml:space="preserve">
<g>
	<g>
		<path d="M383.588,293.167H128.42c-38.253,0-69.372,31.119-69.372,69.373v149.468h393.913V362.54
			C452.961,324.287,421.842,293.167,383.588,293.167z M409.193,468.24H102.816v-105.7c0-14.115,11.467-25.604,25.604-25.604h255.168
			c14.137,0,25.604,11.489,25.604,25.604V468.24z"/>
	</g>
</g>
<g>
	<g>
		<path d="M409.149,44.849c-0.197-5.493-1.357-10.854-3.48-15.975c-4.727-11.511-13.678-20.484-25.167-25.276
			c-11.533-4.793-24.204-4.793-35.759-0.022L131.703,92.381c-16.807,6.915-28.143,23.088-28.887,42.127v114.891h306.377
			L409.149,44.849z M365.425,205.631H146.584l-0.022-70.248c0.044-1.116,0.744-2.101,1.882-2.56l215.252-88.806l1.729,1.641V205.631
			z"/>
	</g>
</g>
<g>
</g>
<g>
</g>
<g>
</g>
<g>
</g>
<g>
</g>
<g>
</g>
<g>
</g>
<g>
</g>
<g>
</g>
<g>
</g>
<g>
</g>
<g>
</g>
<g>
</g>
<g>
</g>
<g>
</g>
</svg>
