<?xml version="1.0" encoding="iso-8859-1"?>
<!-- Generator: Adobe Illustrator 19.0.0, SVG Export Plug-In . SVG Version: 6.00 Build 0)  -->
<svg version="1.1" id="Capa_1" xmlns="http://www.w3.org/2000/svg" xmlns:xlink="http://www.w3.org/1999/xlink" x="0px" y="0px"
	 viewBox="0 0 511.995 511.995" style="enable-background:new 0 0 511.995 511.995;" xml:space="preserve">
<g>
	<g>
		<path d="M492.204,3.813c-6.763-4.694-15.595-5.078-22.785-1.024L21.4,258.8c-7.296,4.16-11.478,12.246-10.646,20.63
			s6.507,15.489,14.486,18.134l146.523,48.834l9.6,145.67c0.597,9.024,6.806,16.683,15.489,19.115
			c1.92,0.533,3.883,0.811,5.803,0.811c6.806,0,13.334-3.264,17.409-9.003l80.515-113.669l108.677,36.226
			c2.219,0.747,4.48,1.109,6.742,1.109c3.84,0,7.638-1.045,11.008-3.072c5.355-3.2,9.024-8.598,10.048-14.763l64.003-384.016
			C502.401,16.678,498.967,8.507,492.204,3.813z M184.543,305.693L83.995,272.177l283.702-162.119L184.543,305.693z M220,429.282
			l-4.502-68.312l42.797,14.273L220,429.282z M399.08,377.205l-169.97-56.664l218.27-233.14L399.08,377.205z"/>
	</g>
</g>
<g>
</g>
<g>
</g>
<g>
</g>
<g>
</g>
<g>
</g>
<g>
</g>
<g>
</g>
<g>
</g>
<g>
</g>
<g>
</g>
<g>
</g>
<g>
</g>
<g>
</g>
<g>
</g>
<g>
</g>
</svg>
