<?xml version="1.0" encoding="iso-8859-1"?>
<!-- Generator: Adobe Illustrator 19.0.0, SVG Export Plug-In . SVG Version: 6.00 Build 0)  -->
<svg version="1.1" id="Capa_1" xmlns="http://www.w3.org/2000/svg" xmlns:xlink="http://www.w3.org/1999/xlink" x="0px" y="0px"
	 viewBox="0 0 512 512" style="enable-background:new 0 0 512 512;" xml:space="preserve">
<g>
	<g>
		<path d="M448,0H64C28.715,0,0,28.715,0,64v384c0,35.285,28.715,64,64,64h384c35.285,0,64-28.715,64-64V64
			C512,28.715,483.285,0,448,0z M469.333,448c0,11.776-9.579,21.333-21.333,21.333H64c-11.755,0-21.333-9.557-21.333-21.333V64
			c0-11.755,9.579-21.333,21.333-21.333h384c11.755,0,21.333,9.579,21.333,21.333V448z"/>
	</g>
</g>
<g>
	<g>
		<path d="M147.627,119.893c-1.067-2.773-2.56-4.907-4.48-7.04c-1.067-0.853-2.133-1.707-3.2-2.56c-1.28-0.853-2.56-1.493-3.84-1.92
			c-1.28-0.64-2.56-1.067-3.84-1.28c-4.267-0.853-8.533-0.427-12.373,1.28c-2.56,1.067-4.907,2.56-7.04,4.48
			c-1.92,2.133-3.413,4.267-4.48,7.04c-1.067,2.56-1.707,5.333-1.707,8.107s0.64,5.547,1.707,8.107
			c1.067,2.773,2.56,4.907,4.48,7.04c4.053,3.84,9.6,6.187,15.147,6.187c1.28,0,2.773-0.213,4.267-0.427
			c1.28-0.213,2.56-0.64,3.84-1.28c1.28-0.427,2.56-1.067,3.84-1.92c1.067-0.853,2.133-1.707,3.2-2.56
			c3.84-4.053,6.187-9.6,6.187-15.147C149.333,125.227,148.693,122.453,147.627,119.893z"/>
	</g>
</g>
<g>
	<g>
		<path d="M384,106.667H213.333C201.557,106.667,192,116.224,192,128s9.557,21.333,21.333,21.333H384
			c11.776,0,21.333-9.557,21.333-21.333S395.776,106.667,384,106.667z"/>
	</g>
</g>
<g>
	<g>
		<path d="M148.907,251.733c-0.213-1.28-0.64-2.56-1.28-3.84c-0.427-1.28-1.067-2.56-1.92-3.84c-0.853-1.067-1.707-2.133-2.56-3.2
			c-2.133-1.92-4.48-3.413-7.04-4.48c-5.12-2.133-11.093-2.133-16.213,0c-2.56,1.067-4.907,2.56-7.04,4.48
			c-0.853,1.067-1.707,2.133-2.56,3.2c-0.853,1.28-1.493,2.56-1.92,3.84c-0.64,1.28-1.067,2.56-1.28,3.84
			c-0.213,1.493-0.427,2.987-0.427,4.267c0,5.547,2.347,11.093,6.187,15.147c4.053,3.84,9.6,6.187,15.147,6.187
			s11.093-2.347,15.147-6.187c3.84-4.053,6.187-9.6,6.187-15.147C149.333,254.72,149.12,253.227,148.907,251.733z"/>
	</g>
</g>
<g>
	<g>
		<path d="M384,234.667H213.333C201.557,234.667,192,244.224,192,256s9.557,21.333,21.333,21.333H384
			c11.776,0,21.333-9.557,21.333-21.333S395.776,234.667,384,234.667z"/>
	</g>
</g>
<g>
	<g>
		<path d="M147.627,375.893c-1.067-2.773-2.56-4.907-4.48-7.04c-5.973-5.781-15.36-7.68-23.253-4.48
			c-2.56,1.067-4.907,2.56-7.04,4.48c-1.92,2.133-3.413,4.48-4.48,7.04s-1.707,5.333-1.707,8.107c0,5.76,2.133,11.093,6.187,15.147
			c4.053,4.032,9.387,6.187,15.147,6.187s11.093-2.155,15.147-6.187c4.053-4.053,6.187-9.387,6.187-15.147
			C149.333,381.227,148.907,378.453,147.627,375.893z"/>
	</g>
</g>
<g>
	<g>
		<path d="M384,362.667H213.333C201.557,362.667,192,372.203,192,384c0,11.797,9.557,21.333,21.333,21.333H384
			c11.776,0,21.333-9.536,21.333-21.333C405.333,372.203,395.776,362.667,384,362.667z"/>
	</g>
</g>
<g>
</g>
<g>
</g>
<g>
</g>
<g>
</g>
<g>
</g>
<g>
</g>
<g>
</g>
<g>
</g>
<g>
</g>
<g>
</g>
<g>
</g>
<g>
</g>
<g>
</g>
<g>
</g>
<g>
</g>
</svg>
