<?xml version="1.0" encoding="iso-8859-1"?>
<!-- Generator: Adobe Illustrator 19.0.0, SVG Export Plug-In . SVG Version: 6.00 Build 0)  -->
<svg version="1.1" id="Capa_1" xmlns="http://www.w3.org/2000/svg" xmlns:xlink="http://www.w3.org/1999/xlink" x="0px" y="0px"
	 viewBox="0 0 512 512" style="enable-background:new 0 0 512 512;" xml:space="preserve">
<g>
	<g>
		<path d="M501.332,321.016L384.79,255.987l116.541-65.009c6.572-3.66,10.668-10.627,10.668-18.155s-4.076-14.495-10.668-18.155
			L266.128,23.445c-6.301-3.515-13.975-3.515-20.276,0L10.648,154.668C4.076,158.308,0,165.274,0,172.803
			s4.076,14.495,10.668,18.155l116.479,64.988L10.668,321.016C4.076,324.697,0,331.643,0,339.171s4.076,14.474,10.668,18.155
			L245.872,488.55c3.14,1.747,6.634,2.641,10.128,2.641s6.987-0.873,10.128-2.641l235.204-131.223
			c6.572-3.66,10.668-10.606,10.668-18.155C512,331.643,507.924,324.677,501.332,321.016z M63.47,172.803L256,65.391l192.53,107.412
			L256,280.214L63.47,172.803z M256,446.583L63.449,339.151L169.8,279.736l76.051,42.424c3.14,1.747,6.634,2.641,10.128,2.641
			c3.494,0,6.987-0.873,10.128-2.641l75.989-42.403l106.393,59.394L256,446.583z"/>
	</g>
</g>
<g>
</g>
<g>
</g>
<g>
</g>
<g>
</g>
<g>
</g>
<g>
</g>
<g>
</g>
<g>
</g>
<g>
</g>
<g>
</g>
<g>
</g>
<g>
</g>
<g>
</g>
<g>
</g>
<g>
</g>
</svg>
