<?xml version="1.0" encoding="iso-8859-1"?>
<!-- Generator: Adobe Illustrator 19.0.0, SVG Export Plug-In . SVG Version: 6.00 Build 0)  -->
<svg version="1.1" id="Capa_1" xmlns="http://www.w3.org/2000/svg" xmlns:xlink="http://www.w3.org/1999/xlink" x="0px" y="0px"
	 viewBox="0 0 512 512" style="enable-background:new 0 0 512 512;" xml:space="preserve">
<g>
	<g>
		<path d="M448,74.667H64c-35.349,0-64,28.651-64,64v234.667c0,35.349,28.651,64,64,64h384c35.349,0,64-28.651,64-64V138.667
			C512,103.317,483.349,74.667,448,74.667z M469.333,373.333c0,11.776-9.557,21.333-21.333,21.333H64
			c-11.776,0-21.333-9.557-21.333-21.333V138.667c0-11.776,9.557-21.333,21.333-21.333h384c11.776,0,21.333,9.557,21.333,21.333
			V373.333z"/>
	</g>
</g>
<g>
	<g>
		<path d="M142.293,186.667c-8.363-8.363-21.931-8.363-30.293,0c-3.904,4.373-5.824,10.155-5.333,16
			c0.043,2.795,0.619,5.547,1.707,8.107c1.941,5.355,6.165,9.579,11.52,11.52c2.56,1.088,5.312,1.664,8.107,1.707
			c5.504-0.405,10.624-2.944,14.293-7.04C150.656,208.597,150.656,195.029,142.293,186.667z"/>
	</g>
</g>
<g>
	<g>
		<path d="M142.293,293.333c-6.144-6.059-15.317-7.829-23.253-4.48c-2.645,0.981-5.035,2.496-7.04,4.48
			c-0.341,0.32-0.661,0.661-0.981,1.024c-7.808,8.832-6.997,22.315,1.835,30.123c2.005,1.963,4.395,3.499,7.04,4.48
			c2.56,1.088,5.312,1.664,8.107,1.707c5.504-0.405,10.624-2.944,14.293-7.04c0.043-0.043,0.085-0.085,0.128-0.128
			C150.72,315.136,150.656,301.632,142.293,293.333z"/>
	</g>
</g>
<g>
	<g>
		<path d="M227.499,186.795c-8.299-8.363-21.803-8.427-30.165-0.128c-3.904,4.373-5.824,10.155-5.333,16
			c0.043,2.795,0.619,5.547,1.707,8.107c1.024,2.624,2.539,5.013,4.48,7.04c2.069,1.877,4.459,3.392,7.04,4.48
			c2.56,1.088,5.312,1.664,8.107,1.707l-0.853-0.853c5.568-0.043,10.923-2.261,14.891-6.187
			C235.733,208.661,235.797,195.157,227.499,186.795z"/>
	</g>
</g>
<g>
	<g>
		<path d="M312.96,186.667c-6.144-6.059-15.317-7.829-23.253-4.48c-2.581,1.088-4.971,2.603-7.04,4.48
			c-3.904,4.373-5.824,10.155-5.333,16c0.043,2.795,0.619,5.547,1.707,8.107c1.024,2.624,2.539,5.013,4.48,7.04
			c2.069,1.877,4.459,3.392,7.04,4.48c2.56,1.088,5.312,1.664,8.107,1.707c5.461-0.512,10.56-3.029,14.293-7.04
			c1.941-2.027,3.456-4.416,4.48-7.04c1.088-2.56,1.664-5.312,1.707-8.107C319.189,196.139,316.949,190.699,312.96,186.667z"/>
	</g>
</g>
<g>
	<g>
		<path d="M399.147,186.667c-8.597-8.363-22.357-8.171-30.72,0.427c-8.363,8.597-8.171,22.357,0.427,30.72
			c4.032,3.989,9.472,6.229,15.147,6.187c2.837-0.299,5.611-1.173,8.107-2.56c5.355-1.941,9.579-6.165,11.52-11.52
			c1.088-2.56,1.664-5.312,1.707-8.107C405.376,196.139,403.136,190.699,399.147,186.667z"/>
	</g>
</g>
<g>
	<g>
		<path d="M398.293,293.333c-6.144-6.059-15.317-7.829-23.253-4.48c-2.624,1.024-5.013,2.539-7.04,4.48
			c-3.648,4.501-5.397,10.24-4.907,16c-0.107,1.429-0.107,2.837,0,4.267c0.235,1.344,0.661,2.624,1.28,3.84
			c0.469,1.365,1.109,2.645,1.92,3.84l2.56,3.2c2.027,1.941,4.416,3.456,7.04,4.48c2.56,1.088,5.312,1.664,8.107,1.707l-0.853-0.853
			c5.739,0.021,11.243-2.24,15.275-6.315C406.72,315.136,406.656,301.632,398.293,293.333z"/>
	</g>
</g>
<g>
	<g>
		<path d="M298.667,288h-85.333C201.557,288,192,297.557,192,309.333s9.557,21.333,21.333,21.333h85.333
			c11.776,0,21.333-9.557,21.333-21.333S310.443,288,298.667,288z"/>
	</g>
</g>
<g>
</g>
<g>
</g>
<g>
</g>
<g>
</g>
<g>
</g>
<g>
</g>
<g>
</g>
<g>
</g>
<g>
</g>
<g>
</g>
<g>
</g>
<g>
</g>
<g>
</g>
<g>
</g>
<g>
</g>
</svg>
