<?xml version="1.0" encoding="iso-8859-1"?>
<!-- Generator: Adobe Illustrator 19.0.0, SVG Export Plug-In . SVG Version: 6.00 Build 0)  -->
<svg version="1.1" id="Capa_1" xmlns="http://www.w3.org/2000/svg" xmlns:xlink="http://www.w3.org/1999/xlink" x="0px" y="0px"
	 viewBox="0 0 512 512" style="enable-background:new 0 0 512 512;" xml:space="preserve">
<g>
	<g>
		<path d="M213.333,0c-70.592,0-128,57.408-128,128v42.667c0,26.411,8.043,50.965,21.803,71.381C43.221,278.912,0,347.733,0,426.667
			V448c0,35.285,28.715,64,64,64h192c11.797,0,21.333-9.557,21.333-21.333s-9.536-21.333-21.333-21.333H64
			c-11.776,0-21.333-9.579-21.333-21.333v-21.333c0-66.965,38.784-125.013,95.061-152.939
			c21.227,15.595,47.317,24.939,75.605,24.939c70.592,0,128-57.408,128-128V128C341.333,57.408,283.925,0,213.333,0z
			 M298.667,170.667c0,47.061-38.272,85.333-85.333,85.333S128,217.728,128,170.667V128c0-47.061,38.272-85.333,85.333-85.333
			c47.061,0,85.333,38.272,85.333,85.333V170.667z"/>
	</g>
</g>
<g>
	<g>
		<path d="M490.667,362.667h-85.333v-85.333c0-11.776-9.536-21.333-21.333-21.333c-11.797,0-21.333,9.557-21.333,21.333v85.333
			h-85.333C265.536,362.667,256,372.224,256,384s9.536,21.333,21.333,21.333h85.333v85.333c0,11.776,9.536,21.333,21.333,21.333
			c11.797,0,21.333-9.557,21.333-21.333v-85.333h85.333c11.797,0,21.333-9.557,21.333-21.333S502.464,362.667,490.667,362.667z"/>
	</g>
</g>
<g>
</g>
<g>
</g>
<g>
</g>
<g>
</g>
<g>
</g>
<g>
</g>
<g>
</g>
<g>
</g>
<g>
</g>
<g>
</g>
<g>
</g>
<g>
</g>
<g>
</g>
<g>
</g>
<g>
</g>
</svg>
