<?xml version="1.0" encoding="iso-8859-1"?>
<!-- Generator: Adobe Illustrator 19.0.0, SVG Export Plug-In . SVG Version: 6.00 Build 0)  -->
<svg version="1.1" id="Capa_1" xmlns="http://www.w3.org/2000/svg" xmlns:xlink="http://www.w3.org/1999/xlink" x="0px" y="0px"
	 viewBox="0 0 511.994 511.994" style="enable-background:new 0 0 511.994 511.994;" xml:space="preserve">
<g>
	<g>
		<path d="M315.76,186.455l-60.12-84.193l-61.209,84.124c-28.341,39.746-43.306,86.543-43.306,135.327v17.281h207.32l0.069-17.212
			C358.686,273.067,343.893,226.271,315.76,186.455z M186.429,304.432c3.041-35.27,15.363-68.83,36.048-97.845l32.903-45.224
			l32.194,45.086c20.599,29.188,32.782,62.747,35.685,97.983H186.429z"/>
	</g>
</g>
<g>
	<g>
		<path d="M347.125,373.746H164.949c-26.302,0-47.695,21.411-47.695,47.695v90.552h276.495v-90.829
			C393.594,395.157,373.116,374.334,347.125,373.746z M359.187,477.432H151.816v-55.99c0-7.241,5.893-13.133,13.133-13.133h181.554
			c7.085,0.242,12.65,5.945,12.684,12.961V477.432z"/>
	</g>
</g>
<g>
	<g>
		<circle cx="255.394" cy="28.168" r="28.168"/>
	</g>
</g>
<g>
	<g>
		<circle cx="168.075" cy="71.405" r="28.168"/>
	</g>
</g>
<g>
	<g>
		<circle cx="118.797" cy="158.403" r="27.995"/>
	</g>
</g>
<g>
	<g>
		<circle cx="343.953" cy="71.368" r="28.168"/>
	</g>
</g>
<g>
	<g>
		<circle cx="393.197" cy="158.439" r="27.995"/>
	</g>
</g>
<g>
</g>
<g>
</g>
<g>
</g>
<g>
</g>
<g>
</g>
<g>
</g>
<g>
</g>
<g>
</g>
<g>
</g>
<g>
</g>
<g>
</g>
<g>
</g>
<g>
</g>
<g>
</g>
<g>
</g>
</svg>
