<?xml version="1.0" encoding="iso-8859-1"?>
<!-- Generator: Adobe Illustrator 19.0.0, SVG Export Plug-In . SVG Version: 6.00 Build 0)  -->
<svg version="1.1" id="Capa_1" xmlns="http://www.w3.org/2000/svg" xmlns:xlink="http://www.w3.org/1999/xlink" x="0px" y="0px"
	 viewBox="0 0 511.993 511.993" style="enable-background:new 0 0 511.993 511.993;" xml:space="preserve">
<g>
	<g>
		<path d="M468.505,56.185c-25.795-22.627-58.911-33.865-93.097-31.575c-34.25,2.248-65.547,17.703-88.302,43.648l-31.039,36.091
			l-31.039-36.241C179.347,16.005,98.965,9.84,45.899,54.387c-26.287,22.07-42.428,53.045-45.403,87.21
			c-2.976,34.165,7.514,67.452,29.691,93.889l208.713,244.676c4.046,4.752,9.975,7.514,16.226,7.514c0.021,0,0.021,0,0.043,0
			c6.229,0,12.159-2.719,16.247-7.471l210.811-244.89C526.774,182.247,520.609,101.887,468.505,56.185z M449.582,207.614
			L255.233,433.367L62.853,207.828c-14.706-17.532-21.685-39.73-19.694-62.507c1.991-22.798,12.737-43.434,30.247-58.14
			c15.905-13.336,35.471-19.865,54.95-19.865c23.89,0,47.629,9.804,64.305,28.835l47.073,55.015
			c4.067,4.752,9.997,7.492,16.247,7.492c0.021,0,0.021,0,0.021,0c6.229,0,12.159-2.719,16.226-7.449l47.18-54.865
			c15.07-17.189,35.963-27.486,58.782-28.984c22.648-1.52,44.847,5.951,62.057,21.043
			C474.992,118.863,479.102,172.422,449.582,207.614z"/>
	</g>
</g>
<g>
</g>
<g>
</g>
<g>
</g>
<g>
</g>
<g>
</g>
<g>
</g>
<g>
</g>
<g>
</g>
<g>
</g>
<g>
</g>
<g>
</g>
<g>
</g>
<g>
</g>
<g>
</g>
<g>
</g>
</svg>
