<?xml version="1.0" encoding="iso-8859-1"?>
<!-- Generator: Adobe Illustrator 19.0.0, SVG Export Plug-In . SVG Version: 6.00 Build 0)  -->
<svg version="1.1" id="Capa_1" xmlns="http://www.w3.org/2000/svg" xmlns:xlink="http://www.w3.org/1999/xlink" x="0px" y="0px"
	 viewBox="0 0 512 512" style="enable-background:new 0 0 512 512;" xml:space="preserve">
<g>
	<g>
		<path d="M511.36,282.837L455.467,59.051c0-0.021,0-0.021,0-0.043c-7.189-28.48-32.704-48.341-62.059-48.341h-0.021H118.635h-0.021
			c-29.355,0-54.869,19.861-62.059,48.384L0.661,282.837C0.213,284.523,0,286.251,0,288v149.333c0,35.285,28.715,64,64,64h384
			c35.285,0,64-28.715,64-64V288C512,286.251,511.787,284.523,511.36,282.837z M97.92,69.419
			c2.389-9.472,10.901-16.085,20.693-16.085h274.773c9.771,0,18.261,6.613,20.672,16.064l30.571,122.389H341.333
			c-11.776,0-21.333,9.557-21.333,21.333c0,35.285-28.715,64-64,64s-64-28.715-64-64c0-11.776-9.557-21.333-21.333-21.333H67.349
			L97.92,69.419z M469.333,437.333c0,11.755-9.579,21.333-21.333,21.333H64c-11.755,0-21.333-9.579-21.333-21.333V290.624
			l14.037-56.171h94.784c9.899,48.619,53.013,85.333,104.512,85.333s94.613-36.715,104.512-85.333h94.784l14.037,56.171V437.333z"/>
	</g>
</g>
<g>
</g>
<g>
</g>
<g>
</g>
<g>
</g>
<g>
</g>
<g>
</g>
<g>
</g>
<g>
</g>
<g>
</g>
<g>
</g>
<g>
</g>
<g>
</g>
<g>
</g>
<g>
</g>
<g>
</g>
</svg>
