<?xml version="1.0" encoding="iso-8859-1"?>
<!-- Generator: Adobe Illustrator 19.0.0, SVG Export Plug-In . SVG Version: 6.00 Build 0)  -->
<svg version="1.1" id="Capa_1" xmlns="http://www.w3.org/2000/svg" xmlns:xlink="http://www.w3.org/1999/xlink" x="0px" y="0px"
	 viewBox="0 0 511.999 511.999" style="enable-background:new 0 0 511.999 511.999;" xml:space="preserve">
<g>
	<g>
		<path d="M431.753,248.516c-3.033-7.385-10.24-12.209-18.215-12.209h-94.661l37.849-213.169c1.497-8.468-2.639-16.896-10.24-20.894
			c-7.601-3.958-16.896-2.599-23.001,3.446L84.617,241.997c-5.691,5.612-7.404,14.1-4.372,21.484
			c3.033,7.385,10.24,12.209,18.215,12.209h94.661L155.293,488.86c-1.497,8.468,2.639,16.896,10.24,20.894
			c2.895,1.497,6.026,2.245,9.137,2.245c5.061,0,10.063-1.95,13.844-5.691L427.381,270
			C433.073,264.388,434.786,255.9,431.753,248.516z M204.898,434.687l31.114-175.262c1.024-5.73-0.551-11.618-4.293-16.089
			c-3.761-4.451-9.275-7.03-15.104-7.03h-70.242L307.101,77.311l-31.114,175.262c-1.024,5.73,0.551,11.618,4.293,16.089
			c3.761,4.45,9.275,7.03,15.104,7.03h70.242L204.898,434.687z"/>
	</g>
</g>
<g>
</g>
<g>
</g>
<g>
</g>
<g>
</g>
<g>
</g>
<g>
</g>
<g>
</g>
<g>
</g>
<g>
</g>
<g>
</g>
<g>
</g>
<g>
</g>
<g>
</g>
<g>
</g>
<g>
</g>
</svg>
