<?xml version="1.0" encoding="iso-8859-1"?>
<!-- Generator: Adobe Illustrator 19.0.0, SVG Export Plug-In . SVG Version: 6.00 Build 0)  -->
<svg version="1.1" id="Capa_1" xmlns="http://www.w3.org/2000/svg" xmlns:xlink="http://www.w3.org/1999/xlink" x="0px" y="0px"
	 viewBox="0 0 512 512" style="enable-background:new 0 0 512 512;" xml:space="preserve">
<g>
	<g>
		<path d="M380.256,263.218c-0.041-58.493-18.062-114.563-52.134-162.181L256.021,0l-72.433,101.058
			c-33.969,47.619-51.906,103.709-51.886,162.181v20.713h248.595L380.256,263.218z M174.019,242.526
			c3.604-42.275,18.393-82.499,43.29-117.359l38.629-53.936l38.484,53.895c24.959,34.88,39.81,75.105,43.497,117.4H174.019z"/>
	</g>
</g>
<g>
	<g>
		<path d="M364.535,325.585h-217.07c-31.525,0-57.167,25.642-57.167,57.167V512h331.405V382.752
			C421.703,351.227,396.039,325.585,364.535,325.585z M380.256,470.574H131.702l-0.021-87.822c0-8.679,7.063-15.742,15.742-15.742
			h217.091c8.679,0,15.742,7.063,15.742,15.742V470.574z"/>
	</g>
</g>
<g>
</g>
<g>
</g>
<g>
</g>
<g>
</g>
<g>
</g>
<g>
</g>
<g>
</g>
<g>
</g>
<g>
</g>
<g>
</g>
<g>
</g>
<g>
</g>
<g>
</g>
<g>
</g>
<g>
</g>
</svg>
