<?xml version="1.0" encoding="iso-8859-1"?>
<!-- Generator: Adobe Illustrator 19.0.0, SVG Export Plug-In . SVG Version: 6.00 Build 0)  -->
<svg version="1.1" id="Capa_1" xmlns="http://www.w3.org/2000/svg" xmlns:xlink="http://www.w3.org/1999/xlink" x="0px" y="0px"
	 viewBox="0 0 512.006 512.006" style="enable-background:new 0 0 512.006 512.006;" xml:space="preserve">
<g>
	<g>
		<path d="M503.379,376.741c2.487-7.959,4.477-16.135,5.883-24.288c8.413-48.858-2.66-98.04-31.252-138.549
			c-23.639-33.523-56.99-57.531-95.423-69.685c-12.609-43.213-39.514-80.391-77.212-106.042
			C262.941,9.259,209.649-1.728,159.234,7.875c-2.098,0.389-4.088,1.103-5.904,2.055C51.743,32.314-14.958,131.609,3.772,234.818
			c1.319,7.224,3.028,14.361,5.234,21.606c10.187,32.464,7.721,67.263-6.899,97.975c-3.655,7.678-2.487,16.762,2.985,23.25
			c5.494,6.51,14.274,9.192,22.407,6.878l67.415-18.989c18.384,11.16,38.044,18.514,58.093,23.012
			c4.823,12.588,10.879,24.807,18.557,36.292c27.532,41.266,69.512,69.339,118.175,79.05c12.241,2.422,24.526,3.633,36.724,3.633
			c33.004,0,65.382-8.824,94.212-25.889l63.932,17.584c8.111,2.249,16.87-0.476,22.299-6.964c5.429-6.467,6.597-15.529,2.963-23.164
			C496.112,440.111,493.82,407.301,503.379,376.741z M110.593,324.184c-3.633-2.466-7.873-3.742-12.177-3.742
			c-1.968,0-3.936,0.26-5.861,0.822l-37.633,10.598c5.926-29.133,4.434-59.391-4.585-88.177c-1.644-5.472-2.985-11.03-4.001-16.632
			C31.413,144.91,86.11,65.968,168.253,51.044c1.86-0.324,3.59-0.908,5.212-1.752c37.308-5.537,76.239,3.309,107.535,24.613
			c69.015,46.998,86.923,141.361,39.925,210.354c-22.753,33.415-57.163,55.973-96.894,63.521
			C184.323,355.329,144.03,346.959,110.593,324.184z M466.633,345.12c-1.06,6.251-2.595,12.501-4.52,18.643
			c-8.521,27.186-10.057,55.67-4.737,83.095l-34.432-9.473c-6.013-1.665-12.501-0.606-17.735,2.877
			c-31.663,21.131-69.621,28.679-107.015,21.217c-37.33-7.44-69.512-28.982-90.665-60.645c-1.665-2.487-2.985-5.083-4.455-7.635
			c59.65-2.314,117.505-31.555,153.624-84.566c23.337-34.259,34.691-74.141,33.502-114.802
			C444.746,221.257,477.534,281.945,466.633,345.12z"/>
	</g>
</g>
<g>
	<g>
		<path d="M123.505,195.39c-1.081-0.865-2.163-1.73-3.244-2.595c-1.298-0.649-2.595-1.514-3.893-1.947
			c-1.298-0.649-2.595-0.865-3.893-1.298c-4.326-0.865-8.651-0.433-12.544,1.298c-2.595,1.081-4.974,2.595-7.137,4.542
			c-3.893,4.109-6.272,9.733-6.272,15.356c0,5.84,2.379,11.247,6.272,15.356c2.163,1.947,4.542,3.677,7.137,4.758
			c2.595,1.081,5.407,1.514,8.219,1.514c5.623,0,11.247-2.163,15.356-6.272c3.893-3.893,6.272-9.516,6.272-15.356
			C129.777,205.122,127.398,199.499,123.505,195.39z"/>
	</g>
</g>
<g>
	<g>
		<path d="M210.017,195.606c-8.002-8.219-22.709-8.002-30.712,0c-3.893,3.893-6.272,9.516-6.272,15.14
			c0,5.84,2.379,11.247,6.272,15.356c4.109,4.109,9.733,6.272,15.356,6.272c1.514,0,2.812,0,4.326-0.433
			c1.298-0.216,2.595-0.649,3.893-1.081c1.298-0.649,2.595-1.298,3.893-2.163c1.081-0.649,2.163-1.73,3.244-2.595
			c0.865-1.081,1.946-2.163,2.595-3.244c0.865-1.298,1.514-2.379,1.947-3.677c0.649-1.514,1.081-2.812,1.298-4.109
			c0.216-1.514,0.433-2.812,0.433-4.326C216.289,205.122,213.91,199.499,210.017,195.606z"/>
	</g>
</g>
<g>
	<g>
		<path d="M296.529,195.606c-8.002-8.219-22.709-8.002-30.712,0c-3.893,3.893-6.272,9.516-6.272,15.14
			c0,5.84,2.379,11.247,6.272,15.356c4.109,4.109,9.516,6.272,15.356,6.272c5.84,0,11.247-2.163,15.356-6.272
			c0.865-1.081,1.947-2.163,2.595-3.244c0.865-1.298,1.514-2.379,1.946-3.677c0.649-1.298,1.081-2.812,1.298-4.109
			c0.216-1.514,0.433-2.812,0.433-4.326C302.801,205.122,300.422,199.499,296.529,195.606z"/>
	</g>
</g>
<g>
</g>
<g>
</g>
<g>
</g>
<g>
</g>
<g>
</g>
<g>
</g>
<g>
</g>
<g>
</g>
<g>
</g>
<g>
</g>
<g>
</g>
<g>
</g>
<g>
</g>
<g>
</g>
<g>
</g>
</svg>
