<?xml version="1.0" encoding="iso-8859-1"?>
<!-- Generator: Adobe Illustrator 19.0.0, SVG Export Plug-In . SVG Version: 6.00 Build 0)  -->
<svg version="1.1" id="Capa_1" xmlns="http://www.w3.org/2000/svg" xmlns:xlink="http://www.w3.org/1999/xlink" x="0px" y="0px"
	 viewBox="0 0 512 512" style="enable-background:new 0 0 512 512;" xml:space="preserve">
<g>
	<g>
		<path d="M452.923,128h-19.692V88.615c0-32.571-26.506-59.077-59.077-59.077H59.077C26.506,29.538,0,56.044,0,88.615v256
			c0,32.571,26.506,59.077,59.077,59.077h39.385v19.692c0,32.571,26.506,59.077,59.077,59.077h295.385
			c32.571,0,59.077-26.506,59.077-59.077V187.077C512,154.506,485.494,128,452.923,128z M59.077,364.308
			c-10.85,0-19.692-8.822-19.692-19.692v-256c0-10.87,8.842-19.692,19.692-19.692h315.077c10.85,0,19.692,8.822,19.692,19.692v256
			c0,10.87-8.842,19.692-19.692,19.692H59.077z M472.615,423.385c0,10.87-8.842,19.692-19.692,19.692H157.538
			c-10.85,0-19.692-8.822-19.692-19.692v-19.692h236.308c32.571,0,59.077-26.506,59.077-59.077V167.385h19.692
			c10.85,0,19.692,8.822,19.692,19.692V423.385z"/>
	</g>
</g>
<g>
	<g>
		<path d="M315.077,147.692H118.154c-10.87,0-19.692,8.802-19.692,19.692c0,10.89,8.822,19.692,19.692,19.692h196.923
			c10.87,0,19.692-8.802,19.692-19.692C334.769,156.495,325.947,147.692,315.077,147.692z"/>
	</g>
</g>
<g>
	<g>
		<path d="M275.692,246.154H157.538c-10.87,0-19.692,8.802-19.692,19.692c0,10.89,8.822,19.692,19.692,19.692h118.154
			c10.87,0,19.692-8.802,19.692-19.692C295.385,254.956,286.563,246.154,275.692,246.154z"/>
	</g>
</g>
<g>
</g>
<g>
</g>
<g>
</g>
<g>
</g>
<g>
</g>
<g>
</g>
<g>
</g>
<g>
</g>
<g>
</g>
<g>
</g>
<g>
</g>
<g>
</g>
<g>
</g>
<g>
</g>
<g>
</g>
</svg>
