<?xml version="1.0" encoding="iso-8859-1"?>
<!-- Generator: Adobe Illustrator 19.0.0, SVG Export Plug-In . SVG Version: 6.00 Build 0)  -->
<svg version="1.1" id="Capa_1" xmlns="http://www.w3.org/2000/svg" xmlns:xlink="http://www.w3.org/1999/xlink" x="0px" y="0px"
	 viewBox="0 0 512 512" style="enable-background:new 0 0 512 512;" xml:space="preserve">
<g>
	<g>
		<path d="M256,0C114.853,0,0,114.833,0,256c0,89.987,46.778,169.127,117.173,214.774c2.082,2.122,4.7,3.589,7.555,4.601
			C163.178,498.456,207.973,512,256,512c141.167,0,256-114.833,256-256S397.167,0,256,0z M256,472.361
			c-37.577-0.02-72.953-9.677-103.788-26.611c5.532-49.792,47.036-85.029,103.391-85.029c56.534,0,98.097,35.455,103.431,85.485
			C328.378,462.882,293.28,472.361,256,472.361z M195.123,248.663c0-33.572,27.305-60.877,60.877-60.877
			s60.877,27.305,60.877,60.877c0,33.571-27.305,60.877-60.877,60.877S195.123,282.235,195.123,248.663z M395.045,421.498
			c-11.045-41.523-41.186-74.282-82.154-90.086c26.314-18.144,43.645-48.444,43.645-82.749c0-55.444-45.093-100.536-100.536-100.536
			c-55.444,0-100.536,45.092-100.536,100.536c0,34.206,17.232,64.387,43.407,82.57c-41.067,15.646-71.347,48.265-82.551,89.709
			C69.503,381.204,39.659,322.052,39.659,256c0-119.275,97.046-216.341,216.341-216.341S472.341,136.725,472.341,256
			C472.341,322.37,442.24,381.779,395.045,421.498z"/>
	</g>
</g>
<g>
</g>
<g>
</g>
<g>
</g>
<g>
</g>
<g>
</g>
<g>
</g>
<g>
</g>
<g>
</g>
<g>
</g>
<g>
</g>
<g>
</g>
<g>
</g>
<g>
</g>
<g>
</g>
<g>
</g>
</svg>
