<?xml version="1.0" encoding="iso-8859-1"?>
<!-- Generator: Adobe Illustrator 19.0.0, SVG Export Plug-In . SVG Version: 6.00 Build 0)  -->
<svg version="1.1" id="Capa_1" xmlns="http://www.w3.org/2000/svg" xmlns:xlink="http://www.w3.org/1999/xlink" x="0px" y="0px"
	 viewBox="0 0 511.989 511.989" style="enable-background:new 0 0 511.989 511.989;" xml:space="preserve">
<g>
	<g>
		<path d="M286.159,255.997L505.734,36.422c8.341-8.341,8.341-21.823,0-30.164c-8.341-8.341-21.823-8.341-30.164,0L255.995,225.833
			L36.42,6.258c-8.341-8.341-21.823-8.341-30.164,0c-8.341,8.341-8.341,21.823,0,30.164l219.575,219.575L6.256,475.572
			c-8.341,8.341-8.341,21.823,0,30.164c4.16,4.16,9.621,6.25,15.082,6.25s10.922-2.091,15.082-6.25l219.575-219.575L475.57,505.736
			c4.16,4.16,9.621,6.25,15.082,6.25s10.922-2.091,15.082-6.25c8.341-8.341,8.341-21.823,0-30.164L286.159,255.997z"/>
	</g>
</g>
<g>
</g>
<g>
</g>
<g>
</g>
<g>
</g>
<g>
</g>
<g>
</g>
<g>
</g>
<g>
</g>
<g>
</g>
<g>
</g>
<g>
</g>
<g>
</g>
<g>
</g>
<g>
</g>
<g>
</g>
</svg>
