<?xml version="1.0" encoding="iso-8859-1"?>
<!-- Generator: Adobe Illustrator 19.0.0, SVG Export Plug-In . SVG Version: 6.00 Build 0)  -->
<svg version="1.1" id="Capa_1" xmlns="http://www.w3.org/2000/svg" xmlns:xlink="http://www.w3.org/1999/xlink" x="0px" y="0px"
	 viewBox="0 0 512 512" style="enable-background:new 0 0 512 512;" xml:space="preserve">
<g>
	<g>
		<path d="M385.11,0.231C384.102,0.084,383.052,0,382.002,0h-252.01c-1.05,0-2.1,0.084-3.129,0.231
			c-34.84,5.25-60.566,35.743-59.873,70.542v420.016c0,7.875,4.41,15.1,11.424,18.691c6.993,3.633,15.436,3.003,21.841-1.638
			l155.616-111.829l155.868,112.039c3.654,2.625,7.938,3.948,12.264,3.948c3.276,0,6.552-0.756,9.576-2.31
			c7.014-3.591,11.424-10.815,11.424-18.691V249.721c0-0.315,0-0.609,0-0.924V71.487C445.844,36.121,420.097,5.481,385.11,0.231z
			 M403.003,450.048l-111.157-79.908l111.157-79.908V450.048z M403.003,70.983v167.524L108.991,449.838V70.353
			c-0.273-13.735,9.429-25.684,22.786-28.351h248.44C393.615,44.669,403.318,56.702,403.003,70.983z"/>
	</g>
</g>
<g>
</g>
<g>
</g>
<g>
</g>
<g>
</g>
<g>
</g>
<g>
</g>
<g>
</g>
<g>
</g>
<g>
</g>
<g>
</g>
<g>
</g>
<g>
</g>
<g>
</g>
<g>
</g>
<g>
</g>
</svg>
