<?xml version="1.0" encoding="iso-8859-1"?>
<!-- Generator: Adobe Illustrator 19.0.0, SVG Export Plug-In . SVG Version: 6.00 Build 0)  -->
<svg version="1.1" id="Capa_1" xmlns="http://www.w3.org/2000/svg" xmlns:xlink="http://www.w3.org/1999/xlink" x="0px" y="0px"
	 viewBox="0 0 512 512" style="enable-background:new 0 0 512 512;" xml:space="preserve">
<g>
	<g>
		<path d="M448,21.333H64c-35.285,0-64,28.715-64,64v85.333C0,182.443,9.536,192,21.333,192h21.333v234.667
			c0,35.285,28.715,64,64,64h298.667c35.285,0,64-28.715,64-64V192h21.333c11.797,0,21.333-9.557,21.333-21.333V85.333
			C512,50.048,483.285,21.333,448,21.333z M426.667,426.667c0,11.755-9.557,21.333-21.333,21.333H106.667
			c-11.776,0-21.333-9.579-21.333-21.333V192h341.333V426.667z M469.333,149.333H448H64H42.667v-64C42.667,73.579,52.224,64,64,64
			h384c11.776,0,21.333,9.579,21.333,21.333V149.333z"/>
	</g>
</g>
<g>
	<g>
		<path d="M309.333,234.667H202.667c-29.419,0-53.333,23.936-53.333,53.333s23.915,53.333,53.333,53.333h106.667
			c29.419,0,53.333-23.936,53.333-53.333S338.752,234.667,309.333,234.667z M309.333,298.667H202.667
			C196.8,298.667,192,293.888,192,288s4.8-10.667,10.667-10.667h106.667C315.2,277.333,320,282.112,320,288
			S315.2,298.667,309.333,298.667z"/>
	</g>
</g>
<g>
</g>
<g>
</g>
<g>
</g>
<g>
</g>
<g>
</g>
<g>
</g>
<g>
</g>
<g>
</g>
<g>
</g>
<g>
</g>
<g>
</g>
<g>
</g>
<g>
</g>
<g>
</g>
<g>
</g>
</svg>
