<?xml version="1.0" encoding="iso-8859-1"?>
<!-- Generator: Adobe Illustrator 19.0.0, SVG Export Plug-In . SVG Version: 6.00 Build 0)  -->
<svg version="1.1" id="Capa_1" xmlns="http://www.w3.org/2000/svg" xmlns:xlink="http://www.w3.org/1999/xlink" x="0px" y="0px"
	 viewBox="0 0 512 512" style="enable-background:new 0 0 512 512;" xml:space="preserve">
<g>
	<g>
		<path d="M466.031,11.294H45.969C20.864,11.393,0.436,31.564,0,56.669v291.468c0.099,25.342,20.627,45.87,45.969,45.969h124.632v64
			H128v42.601h256V458.7h-42.601v-64h124.632c25.501-0.099,46.088-20.864,45.969-46.365c0-0.059,0-0.139,0-0.198V56.669
			C511.564,31.564,491.136,11.393,466.031,11.294z M298.601,458.7h-85.201v-64h85.201V458.7z M469.399,348.137
			c0,1.863-1.506,3.368-3.368,3.368H45.969c-1.704-0.198-2.992-1.645-2.972-3.368V56.669c0-1.862,1.506-3.368,3.368-3.368h420.062
			c1.863,0,3.368,1.506,3.368,3.368L469.399,348.137z"/>
	</g>
</g>
<g>
	<g>
		<rect x="149.399" y="117.301" width="42.601" height="170.799"/>
	</g>
</g>
<g>
	<g>
		<rect x="234.601" y="159.901" width="42.601" height="128"/>
	</g>
</g>
<g>
	<g>
		<rect x="320" y="202.7" width="42.601" height="85.399"/>
	</g>
</g>
<g>
</g>
<g>
</g>
<g>
</g>
<g>
</g>
<g>
</g>
<g>
</g>
<g>
</g>
<g>
</g>
<g>
</g>
<g>
</g>
<g>
</g>
<g>
</g>
<g>
</g>
<g>
</g>
<g>
</g>
</svg>
