<?xml version="1.0" encoding="iso-8859-1"?>
<!-- Generator: Adobe Illustrator 19.0.0, SVG Export Plug-In . SVG Version: 6.00 Build 0)  -->
<svg version="1.1" id="Capa_1" xmlns="http://www.w3.org/2000/svg" xmlns:xlink="http://www.w3.org/1999/xlink" x="0px" y="0px"
	 viewBox="0 0 512 512" style="enable-background:new 0 0 512 512;" xml:space="preserve">
<g>
	<g>
		<path d="M465.455,372.364h-23.273V186.182C442.182,83.526,358.656,0,256,0S69.818,83.526,69.818,186.182v186.182H46.545
			c-12.87,0-23.273,10.403-23.273,23.273s10.403,23.273,23.273,23.273h23.273h93.091C162.909,470.249,204.66,512,256,512
			s93.091-41.751,93.091-93.091h93.091h23.273c12.87,0,23.273-10.403,23.273-23.273S478.324,372.364,465.455,372.364z M256,465.455
			c-25.67,0-46.545-20.876-46.545-46.545h93.091C302.545,444.579,281.67,465.455,256,465.455z M395.636,372.364h-46.545H162.909
			h-46.545V186.182c0-77.009,62.627-139.636,139.636-139.636s139.636,62.627,139.636,139.636V372.364z"/>
	</g>
</g>
<g>
</g>
<g>
</g>
<g>
</g>
<g>
</g>
<g>
</g>
<g>
</g>
<g>
</g>
<g>
</g>
<g>
</g>
<g>
</g>
<g>
</g>
<g>
</g>
<g>
</g>
<g>
</g>
<g>
</g>
</svg>
