<?xml version="1.0" encoding="iso-8859-1"?>
<!-- Generator: Adobe Illustrator 19.0.0, SVG Export Plug-In . SVG Version: 6.00 Build 0)  -->
<svg version="1.1" id="Capa_1" xmlns="http://www.w3.org/2000/svg" xmlns:xlink="http://www.w3.org/1999/xlink" x="0px" y="0px"
	 viewBox="0 0 512 512" style="enable-background:new 0 0 512 512;" xml:space="preserve">
<g>
	<g>
		<path d="M256,0C114.833,0,0,114.833,0,256s114.833,256,256,256s256-114.853,256-256S397.167,0,256,0z M256,472.341
			c-119.275,0-216.341-97.046-216.341-216.341S136.725,39.659,256,39.659c119.295,0,216.341,97.046,216.341,216.341
			S375.275,472.341,256,472.341z"/>
	</g>
</g>
<g>
	<g>
		<path d="M373.451,166.965c-8.071-7.337-20.623-6.762-27.999,1.348L224.491,301.509l-58.438-59.409
			c-7.714-7.813-20.246-7.932-28.039-0.238c-7.813,7.674-7.932,20.226-0.238,28.039l73.151,74.361
			c3.748,3.807,8.824,5.929,14.138,5.929c0.119,0,0.258,0,0.377,0.02c5.473-0.119,10.629-2.459,14.297-6.504l135.059-148.722
			C382.156,186.854,381.561,174.322,373.451,166.965z"/>
	</g>
</g>
<g>
</g>
<g>
</g>
<g>
</g>
<g>
</g>
<g>
</g>
<g>
</g>
<g>
</g>
<g>
</g>
<g>
</g>
<g>
</g>
<g>
</g>
<g>
</g>
<g>
</g>
<g>
</g>
<g>
</g>
</svg>
